# xmcd
#
# Track frame offsets: 
#        150
#        15677
#        26140
#        39475
#        57225
#        73400
#        86312
#        97675
#        112097
#        131025
#        141775
#        157330
#        170972
#        187887
#        198127
#        214635
#        225617
#        244655
#        252977
#        264782
#        280057
#
# Disc length: 3963 seconds
#
# Revision: 4
# Processed by: cddbd v1.5.2PL0 Copyright (c) Steve Scherf et al.
# Submitted via: ExactAudioCopy v0.99pb4
#
DISCID=2a0f7915
DTITLE=Memphis Slim - The Folkways Years
DYEAR=2000
DGENRE=Blues
TTITLE0=Joggie Boogie
TTITLE1=I Left That Town - Harlem Bound
TTITLE2=Key to the Highway
TTITLE3=Chicago Rent Party
TTITLE4=Stewball
TTITLE5=The Dirty Dozens
TTITLE6=Beer-Drinking Woman
TTITLE7=Walking Blues
TTITLE8=Pinetop's Boogie Woogie
TTITLE9=San Juan Blues
TTITLE10=Prison Bound
TTITLE11=If the Rabbit Had a Gun
TTITLE12=Backwater Blues
TTITLE13=You Name It
TTITLE14=M and O Blues
TTITLE15=Every Day I Have the Blues
TTITLE16=Just a Dream
TTITLE17=Midnight Special
TTITLE18=The Bells
TTITLE19=Mean Old Frisco
TTITLE20=The Gimmick
EXTD=
EXTT0=
EXTT1=
EXTT2=
EXTT3=
EXTT4=
EXTT5=
EXTT6=
EXTT7=
EXTT8=
EXTT9=
EXTT10=
EXTT11=
EXTT12=
EXTT13=
EXTT14=
EXTT15=
EXTT16=
EXTT17=
EXTT18=
EXTT19=
EXTT20=
PLAYORDER=
